<mxfile modified="2020-05-12T09:23:06.989Z" host="www.draw.io" agent="5.0 (Macintosh)" etag="HaRjFAJn5gJ9NQjdRYG0" version="13.0.9" type="github" pages="3">
  <diagram id="Buk5dl0sriU3LL23hRpX" name="Architecture">
    <mxGraphModel dx="1018" dy="656" grid="0" gridSize="10" guides="1" tooltips="1" connect="1" arrows="1" fold="1" page="1" pageScale="1" pageWidth="3300" pageHeight="4681" math="0" shadow="0">
      <root>
        <mxCell id="0" />
        <mxCell id="1" parent="0" />
        <mxCell id="E3z3DqGvafRMyaDgdsII-23" value="" style="rounded=0;whiteSpace=wrap;html=1;fillColor=#d5e8d4;strokeColor=#82b366;" parent="1" vertex="1">
          <mxGeometry x="830" y="160" width="190" height="150" as="geometry" />
        </mxCell>
        <mxCell id="E3z3DqGvafRMyaDgdsII-21" value="" style="rounded=0;whiteSpace=wrap;html=1;fillColor=#fff2cc;strokeColor=#d6b656;" parent="1" vertex="1">
          <mxGeometry x="180" y="390" width="601" height="243" as="geometry" />
        </mxCell>
        <mxCell id="E3z3DqGvafRMyaDgdsII-2" value="ms-notif" style="rounded=1;whiteSpace=wrap;html=1;" parent="1" vertex="1">
          <mxGeometry x="389.5" y="455" width="80" height="30" as="geometry" />
        </mxCell>
        <mxCell id="E3z3DqGvafRMyaDgdsII-3" value="ms-idm" style="rounded=1;whiteSpace=wrap;html=1;fillColor=#d5e8d4;strokeColor=#82b366;" parent="1" vertex="1">
          <mxGeometry x="304.5" y="455" width="80" height="30" as="geometry" />
        </mxCell>
        <mxCell id="E3z3DqGvafRMyaDgdsII-11" value="" style="edgeStyle=orthogonalEdgeStyle;rounded=0;orthogonalLoop=1;jettySize=auto;html=1;entryX=-0.025;entryY=0.65;entryDx=0;entryDy=0;entryPerimeter=0;shape=link;" parent="1" source="E3z3DqGvafRMyaDgdsII-4" target="E3z3DqGvafRMyaDgdsII-12" edge="1">
          <mxGeometry relative="1" as="geometry">
            <mxPoint x="548" y="140" as="targetPoint" />
            <Array as="points">
              <mxPoint x="837" y="210" />
            </Array>
          </mxGeometry>
        </mxCell>
        <mxCell id="E3z3DqGvafRMyaDgdsII-31" value="" style="edgeStyle=orthogonalEdgeStyle;shape=link;rounded=0;orthogonalLoop=1;jettySize=auto;html=1;entryX=0;entryY=0.5;entryDx=0;entryDy=0;" parent="1" source="E3z3DqGvafRMyaDgdsII-4" target="E3z3DqGvafRMyaDgdsII-7" edge="1">
          <mxGeometry relative="1" as="geometry">
            <mxPoint x="645" y="225" as="targetPoint" />
          </mxGeometry>
        </mxCell>
        <mxCell id="E3z3DqGvafRMyaDgdsII-37" value="" style="edgeStyle=orthogonalEdgeStyle;shape=link;rounded=0;orthogonalLoop=1;jettySize=auto;html=1;entryX=0.617;entryY=0.05;entryDx=0;entryDy=0;entryPerimeter=0;" parent="1" target="E3z3DqGvafRMyaDgdsII-33" edge="1">
          <mxGeometry relative="1" as="geometry">
            <mxPoint x="491" y="280" as="sourcePoint" />
            <mxPoint x="547.5" y="330" as="targetPoint" />
          </mxGeometry>
        </mxCell>
        <mxCell id="E3z3DqGvafRMyaDgdsII-4" value="frontend" style="verticalLabelPosition=bottom;html=1;verticalAlign=top;align=center;strokeColor=none;fillColor=#00BEF2;shape=mxgraph.azure.mobile;pointerEvents=1;" parent="1" vertex="1">
          <mxGeometry x="470.5" y="200" width="35" height="50" as="geometry" />
        </mxCell>
        <mxCell id="E3z3DqGvafRMyaDgdsII-7" value="Minio&lt;br&gt;&lt;div&gt;(for upload &amp;amp; access file storage)&lt;br&gt;&lt;/div&gt;" style="rounded=1;whiteSpace=wrap;html=1;" parent="1" vertex="1">
          <mxGeometry x="840" y="240" width="120" height="60" as="geometry" />
        </mxCell>
        <mxCell id="E3z3DqGvafRMyaDgdsII-12" value="firebase&lt;br&gt;to listen to notif" style="rounded=1;whiteSpace=wrap;html=1;" parent="1" vertex="1">
          <mxGeometry x="840" y="185" width="120" height="40" as="geometry" />
        </mxCell>
        <mxCell id="E3z3DqGvafRMyaDgdsII-13" value="worker-recurring-expense" style="rounded=1;whiteSpace=wrap;html=1;" parent="1" vertex="1">
          <mxGeometry x="560" y="555" width="80" height="55" as="geometry" />
        </mxCell>
        <mxCell id="E3z3DqGvafRMyaDgdsII-14" value="ms-edc" style="rounded=1;whiteSpace=wrap;html=1;" parent="1" vertex="1">
          <mxGeometry x="474.5" y="455" width="80" height="30" as="geometry" />
        </mxCell>
        <mxCell id="E3z3DqGvafRMyaDgdsII-15" value="ms-common" style="rounded=1;whiteSpace=wrap;html=1;" parent="1" vertex="1">
          <mxGeometry x="474.5" y="415" width="80" height="30" as="geometry" />
        </mxCell>
        <mxCell id="E3z3DqGvafRMyaDgdsII-16" value="ms-pos" style="rounded=1;whiteSpace=wrap;html=1;fillColor=#d5e8d4;strokeColor=#82b366;" parent="1" vertex="1">
          <mxGeometry x="304.5" y="415" width="80" height="30" as="geometry" />
        </mxCell>
        <mxCell id="E3z3DqGvafRMyaDgdsII-17" value="ms-crm" style="rounded=1;whiteSpace=wrap;html=1;" parent="1" vertex="1">
          <mxGeometry x="559.5" y="415" width="80" height="30" as="geometry" />
        </mxCell>
        <mxCell id="E3z3DqGvafRMyaDgdsII-18" value="ms-report" style="rounded=1;whiteSpace=wrap;html=1;" parent="1" vertex="1">
          <mxGeometry x="389.5" y="415" width="80" height="30" as="geometry" />
        </mxCell>
        <mxCell id="E3z3DqGvafRMyaDgdsII-46" value="" style="edgeStyle=orthogonalEdgeStyle;shape=link;rounded=0;orthogonalLoop=1;jettySize=auto;html=1;" parent="1" source="E3z3DqGvafRMyaDgdsII-19" target="E3z3DqGvafRMyaDgdsII-13" edge="1">
          <mxGeometry relative="1" as="geometry" />
        </mxCell>
        <mxCell id="E3z3DqGvafRMyaDgdsII-19" value="ms-expense" style="rounded=1;whiteSpace=wrap;html=1;" parent="1" vertex="1">
          <mxGeometry x="559.5" y="455" width="80" height="30" as="geometry" />
        </mxCell>
        <mxCell id="E3z3DqGvafRMyaDgdsII-29" value="" style="edgeStyle=orthogonalEdgeStyle;shape=link;rounded=0;orthogonalLoop=1;jettySize=auto;html=1;" parent="1" source="E3z3DqGvafRMyaDgdsII-20" target="E3z3DqGvafRMyaDgdsII-7" edge="1">
          <mxGeometry relative="1" as="geometry" />
        </mxCell>
        <mxCell id="E3z3DqGvafRMyaDgdsII-20" value="ms-file" style="rounded=1;whiteSpace=wrap;html=1;" parent="1" vertex="1">
          <mxGeometry x="644.5" y="455" width="80" height="30" as="geometry" />
        </mxCell>
        <mxCell id="E3z3DqGvafRMyaDgdsII-22" value="" style="rounded=0;whiteSpace=wrap;html=1;fillColor=#dae8fc;strokeColor=#6c8ebf;" parent="1" vertex="1">
          <mxGeometry x="180" y="540" width="340" height="190" as="geometry" />
        </mxCell>
        <mxCell id="E3z3DqGvafRMyaDgdsII-24" value="forgerock" style="rounded=1;whiteSpace=wrap;html=1;" parent="1" vertex="1">
          <mxGeometry x="304.5" y="550" width="80" height="30" as="geometry" />
        </mxCell>
        <mxCell id="E3z3DqGvafRMyaDgdsII-25" value="" style="edgeStyle=orthogonalEdgeStyle;rounded=0;orthogonalLoop=1;jettySize=auto;html=1;shape=link;" parent="1" source="E3z3DqGvafRMyaDgdsII-3" target="E3z3DqGvafRMyaDgdsII-24" edge="1">
          <mxGeometry relative="1" as="geometry" />
        </mxCell>
        <mxCell id="E3z3DqGvafRMyaDgdsII-26" value="&lt;div&gt;ms-common&lt;/div&gt;&lt;div&gt;bankwide&lt;/div&gt;&lt;div&gt;- send email&lt;/div&gt;&lt;div&gt;- send notif&lt;br&gt;&lt;/div&gt;" style="rounded=1;whiteSpace=wrap;html=1;" parent="1" vertex="1">
          <mxGeometry x="408" y="550" width="80" height="70" as="geometry" />
        </mxCell>
        <mxCell id="E3z3DqGvafRMyaDgdsII-27" value="" style="edgeStyle=orthogonalEdgeStyle;shape=link;rounded=0;orthogonalLoop=1;jettySize=auto;html=1;" parent="1" source="E3z3DqGvafRMyaDgdsII-2" target="E3z3DqGvafRMyaDgdsII-26" edge="1">
          <mxGeometry relative="1" as="geometry" />
        </mxCell>
        <mxCell id="E3z3DqGvafRMyaDgdsII-28" value="" style="edgeStyle=orthogonalEdgeStyle;shape=link;rounded=0;orthogonalLoop=1;jettySize=auto;html=1;entryX=0.75;entryY=0;entryDx=0;entryDy=0;width=-4;" parent="1" source="E3z3DqGvafRMyaDgdsII-14" target="E3z3DqGvafRMyaDgdsII-26" edge="1">
          <mxGeometry relative="1" as="geometry">
            <Array as="points">
              <mxPoint x="538" y="520" />
              <mxPoint x="468" y="520" />
            </Array>
          </mxGeometry>
        </mxCell>
        <mxCell id="E3z3DqGvafRMyaDgdsII-34" value="Microservice" style="text;html=1;resizable=0;points=[];autosize=1;align=left;verticalAlign=top;spacingTop=-4;" parent="1" vertex="1">
          <mxGeometry x="451.5" y="390" width="80" height="20" as="geometry" />
        </mxCell>
        <mxCell id="E3z3DqGvafRMyaDgdsII-35" value="" style="group;fillColor=#d5e8d4;strokeColor=#82b366;" parent="1" vertex="1" connectable="0">
          <mxGeometry x="180" y="343" width="601" height="25" as="geometry" />
        </mxCell>
        <mxCell id="E3z3DqGvafRMyaDgdsII-32" value="" style="rounded=0;whiteSpace=wrap;html=1;fillColor=#ffe6cc;strokeColor=#d79b00;" parent="E3z3DqGvafRMyaDgdsII-35" vertex="1">
          <mxGeometry width="601" height="25" as="geometry" />
        </mxCell>
        <mxCell id="E3z3DqGvafRMyaDgdsII-33" value="Gateway" style="text;html=1;resizable=0;points=[];autosize=1;align=left;verticalAlign=top;spacingTop=-4;" parent="E3z3DqGvafRMyaDgdsII-35" vertex="1">
          <mxGeometry x="274.29006085192697" y="2.5" width="60" height="20" as="geometry" />
        </mxCell>
        <mxCell id="E3z3DqGvafRMyaDgdsII-40" value="external bankwide" style="text;html=1;resizable=0;points=[];autosize=1;align=left;verticalAlign=top;spacingTop=-4;" parent="1" vertex="1">
          <mxGeometry x="279.5" y="710" width="110" height="20" as="geometry" />
        </mxCell>
        <mxCell id="E3z3DqGvafRMyaDgdsII-42" value="worker" style="text;html=1;resizable=0;points=[];autosize=1;align=left;verticalAlign=top;spacingTop=-4;" parent="1" vertex="1">
          <mxGeometry x="577.5" y="710" width="50" height="20" as="geometry" />
        </mxCell>
        <mxCell id="E3z3DqGvafRMyaDgdsII-43" value="ms-payment" style="rounded=1;whiteSpace=wrap;html=1;fillColor=#d5e8d4;strokeColor=#82b366;" parent="1" vertex="1">
          <mxGeometry x="644.5" y="415" width="80" height="30" as="geometry" />
        </mxCell>
        <mxCell id="_BGTnKXIdIxIyyAY_IrQ-10" value="" style="edgeStyle=orthogonalEdgeStyle;rounded=0;orthogonalLoop=1;jettySize=auto;html=1;entryX=1;entryY=0.5;entryDx=0;entryDy=0;shape=link;" edge="1" parent="1" source="E3z3DqGvafRMyaDgdsII-47" target="E3z3DqGvafRMyaDgdsII-43">
          <mxGeometry relative="1" as="geometry">
            <mxPoint x="573" y="657.5" as="targetPoint" />
          </mxGeometry>
        </mxCell>
        <mxCell id="E3z3DqGvafRMyaDgdsII-47" value="&lt;div&gt;ms-transaction&lt;/div&gt;&lt;div&gt;bankwide&lt;br&gt;&lt;/div&gt;" style="rounded=1;whiteSpace=wrap;html=1;" parent="1" vertex="1">
          <mxGeometry x="410" y="635" width="83" height="45" as="geometry" />
        </mxCell>
        <mxCell id="E3z3DqGvafRMyaDgdsII-51" value="&lt;div&gt;Forgerock&lt;/div&gt;&lt;div&gt;Jen&lt;br&gt;&lt;/div&gt;" style="rounded=1;whiteSpace=wrap;html=1;" parent="1" vertex="1">
          <mxGeometry x="207.5" y="550" width="80" height="45" as="geometry" />
        </mxCell>
        <mxCell id="E3z3DqGvafRMyaDgdsII-55" value="" style="edgeStyle=orthogonalEdgeStyle;shape=link;rounded=0;orthogonalLoop=1;jettySize=auto;html=1;" parent="1" source="E3z3DqGvafRMyaDgdsII-52" target="E3z3DqGvafRMyaDgdsII-51" edge="1">
          <mxGeometry relative="1" as="geometry" />
        </mxCell>
        <mxCell id="E3z3DqGvafRMyaDgdsII-52" value="ms-idm-core" style="rounded=1;whiteSpace=wrap;html=1;" parent="1" vertex="1">
          <mxGeometry x="217" y="460" width="80" height="25" as="geometry" />
        </mxCell>
        <mxCell id="E3z3DqGvafRMyaDgdsII-56" value="" style="edgeStyle=orthogonalEdgeStyle;shape=link;rounded=0;orthogonalLoop=1;jettySize=auto;html=1;entryX=0.5;entryY=0;entryDx=0;entryDy=0;width=3;" parent="1" source="E3z3DqGvafRMyaDgdsII-53" target="E3z3DqGvafRMyaDgdsII-52" edge="1">
          <mxGeometry relative="1" as="geometry">
            <Array as="points">
              <mxPoint x="260" y="455" />
            </Array>
          </mxGeometry>
        </mxCell>
        <mxCell id="E3z3DqGvafRMyaDgdsII-53" value="ms-gql-auth" style="rounded=1;whiteSpace=wrap;html=1;" parent="1" vertex="1">
          <mxGeometry x="219.5" y="415" width="80" height="30" as="geometry" />
        </mxCell>
        <mxCell id="E3z3DqGvafRMyaDgdsII-57" style="edgeStyle=orthogonalEdgeStyle;shape=link;rounded=0;orthogonalLoop=1;jettySize=auto;html=1;exitX=0.5;exitY=1;exitDx=0;exitDy=0;" parent="1" source="E3z3DqGvafRMyaDgdsII-53" target="E3z3DqGvafRMyaDgdsII-53" edge="1">
          <mxGeometry relative="1" as="geometry" />
        </mxCell>
        <mxCell id="E3z3DqGvafRMyaDgdsII-58" value="Eksternal" style="text;html=1;resizable=0;points=[];autosize=1;align=left;verticalAlign=top;spacingTop=-4;" parent="1" vertex="1">
          <mxGeometry x="890" y="160" width="70" height="20" as="geometry" />
        </mxCell>
        <mxCell id="_BGTnKXIdIxIyyAY_IrQ-1" value="" style="group;fillColor=#d5e8d4;strokeColor=#82b366;" vertex="1" connectable="0" parent="1">
          <mxGeometry x="755" y="251" width="26" height="92" as="geometry" />
        </mxCell>
        <mxCell id="_BGTnKXIdIxIyyAY_IrQ-2" value="" style="rounded=0;whiteSpace=wrap;html=1;fillColor=#ffe6cc;strokeColor=#d79b00;" vertex="1" parent="_BGTnKXIdIxIyyAY_IrQ-1">
          <mxGeometry y="-1" width="26" height="93" as="geometry" />
        </mxCell>
        <mxCell id="_BGTnKXIdIxIyyAY_IrQ-3" value="Gateway" style="text;html=1;resizable=0;points=[];autosize=1;align=left;verticalAlign=top;spacingTop=-4;" vertex="1" parent="1">
          <mxGeometry x="697.9961257606491" y="294" width="60" height="20" as="geometry" />
        </mxCell>
      </root>
    </mxGraphModel>
  </diagram>
  <diagram id="HBPXStZaEYz0rpjmW9VO" name="Context">
    <mxGraphModel dx="1018" dy="656" grid="0" gridSize="10" guides="1" tooltips="1" connect="1" arrows="1" fold="1" page="1" pageScale="1" pageWidth="3300" pageHeight="4681" math="0" shadow="0">
      <root>
        <mxCell id="wCk7jp4Z5cYWTqhnBnQ8-0" />
        <mxCell id="wCk7jp4Z5cYWTqhnBnQ8-1" parent="wCk7jp4Z5cYWTqhnBnQ8-0" />
        <mxCell id="wCk7jp4Z5cYWTqhnBnQ8-2" value="&lt;div&gt;&lt;b&gt;ms-pos&lt;/b&gt; responsible for:&lt;br&gt;&lt;/div&gt;&lt;div&gt;&lt;ul&gt;&lt;li&gt;managing products&lt;br&gt;&lt;/li&gt;&lt;li&gt;managing merchants&lt;/li&gt;&lt;li&gt;managing stores&lt;/li&gt;&lt;li&gt;managing employees&lt;/li&gt;&lt;li&gt;managing product category&lt;br&gt;&lt;/li&gt;&lt;/ul&gt;&lt;/div&gt;" style="whiteSpace=wrap;html=1;aspect=fixed;align=left;fillColor=#dae8fc;strokeColor=#6c8ebf;" parent="wCk7jp4Z5cYWTqhnBnQ8-1" vertex="1">
          <mxGeometry x="80" y="70" width="150" height="150" as="geometry" />
        </mxCell>
        <mxCell id="wCk7jp4Z5cYWTqhnBnQ8-3" value="&lt;div&gt;&lt;b&gt;ms-payment&lt;/b&gt; responsible for:&lt;br&gt;&lt;/div&gt;&lt;div&gt;&lt;ul&gt;&lt;li&gt;managing payment&lt;/li&gt;&lt;li&gt;get sales detail&lt;/li&gt;&lt;li&gt;get open bills&lt;/li&gt;&lt;li&gt;get customer&#39;s spending sum&lt;/li&gt;&lt;/ul&gt;&lt;/div&gt;" style="whiteSpace=wrap;html=1;aspect=fixed;align=left;fillColor=#fff2cc;strokeColor=#d6b656;" parent="wCk7jp4Z5cYWTqhnBnQ8-1" vertex="1">
          <mxGeometry x="240" y="70" width="150" height="150" as="geometry" />
        </mxCell>
        <mxCell id="wCk7jp4Z5cYWTqhnBnQ8-4" value="&lt;div&gt;&lt;b&gt;ms-idm&lt;/b&gt; responsible for:&lt;br&gt;&lt;/div&gt;&lt;div&gt;&lt;ul&gt;&lt;li&gt;authentication&lt;/li&gt;&lt;li&gt;getting an user information&lt;/li&gt;&lt;li&gt;PIN&lt;/li&gt;&lt;li&gt;OTP&lt;br&gt;&lt;/li&gt;&lt;li&gt;register as storeOwner&lt;br&gt;&lt;/li&gt;&lt;/ul&gt;&lt;/div&gt;" style="whiteSpace=wrap;html=1;aspect=fixed;align=left;fillColor=#d5e8d4;strokeColor=#82b366;" parent="wCk7jp4Z5cYWTqhnBnQ8-1" vertex="1">
          <mxGeometry x="400" y="70" width="150" height="150" as="geometry" />
        </mxCell>
        <mxCell id="wCk7jp4Z5cYWTqhnBnQ8-6" value="&lt;div&gt;&lt;b&gt;ms-common&lt;br&gt;&lt;/b&gt; responsible for:&lt;br&gt;&lt;/div&gt;&lt;div&gt;&lt;ul&gt;&lt;li&gt;widgets&lt;/li&gt;&lt;li&gt;azure tokens&lt;/li&gt;&lt;li&gt;FAQ and TnC&lt;/li&gt;&lt;li&gt;EDC Credentials&lt;br&gt;&lt;/li&gt;&lt;/ul&gt;&lt;/div&gt;" style="whiteSpace=wrap;html=1;aspect=fixed;align=left;fillColor=#d5e8d4;strokeColor=#82b366;" parent="wCk7jp4Z5cYWTqhnBnQ8-1" vertex="1">
          <mxGeometry x="80" y="230" width="150" height="150" as="geometry" />
        </mxCell>
        <mxCell id="wCk7jp4Z5cYWTqhnBnQ8-7" value="&lt;div&gt;&lt;b&gt;ms-edc&lt;/b&gt; responsible for:&lt;br&gt;&lt;/div&gt;&lt;div&gt;&lt;ul&gt;&lt;li&gt;get form to register edc&lt;br&gt;&lt;/li&gt;&lt;/ul&gt;&lt;/div&gt;" style="whiteSpace=wrap;html=1;aspect=fixed;align=left;fillColor=#f5f5f5;strokeColor=#666666;fontColor=#333333;" parent="wCk7jp4Z5cYWTqhnBnQ8-1" vertex="1">
          <mxGeometry x="240" y="230" width="150" height="150" as="geometry" />
        </mxCell>
        <mxCell id="wCk7jp4Z5cYWTqhnBnQ8-10" value="&lt;div&gt;&lt;b&gt;ms-report&lt;/b&gt; responsible for:&lt;br&gt;&lt;/div&gt;&lt;div&gt;&lt;ul&gt;&lt;li&gt;generating report on dashboard&#39;s chart&lt;br&gt;&lt;/li&gt;&lt;/ul&gt;&lt;/div&gt;" style="whiteSpace=wrap;html=1;aspect=fixed;align=left;fillColor=#ffe6cc;strokeColor=#d79b00;" parent="wCk7jp4Z5cYWTqhnBnQ8-1" vertex="1">
          <mxGeometry x="400" y="230" width="150" height="150" as="geometry" />
        </mxCell>
        <mxCell id="wCk7jp4Z5cYWTqhnBnQ8-13" value="&lt;div&gt;&lt;b&gt;ms-file&lt;/b&gt; &lt;br&gt;responsible for:&lt;br&gt;&lt;/div&gt;&lt;div&gt;&lt;ul&gt;&lt;li&gt;generating receipt&lt;/li&gt;&lt;li&gt;generate excel report (or csv)&lt;br&gt;&lt;/li&gt;&lt;/ul&gt;&lt;/div&gt;" style="whiteSpace=wrap;html=1;aspect=fixed;align=left;fillColor=#ffcc99;strokeColor=#36393d;" parent="wCk7jp4Z5cYWTqhnBnQ8-1" vertex="1">
          <mxGeometry x="80" y="390" width="150" height="150" as="geometry" />
        </mxCell>
        <mxCell id="wCk7jp4Z5cYWTqhnBnQ8-15" value="&lt;div&gt;&lt;b&gt;ms-expense&lt;/b&gt; &lt;br&gt;responsible for:&lt;br&gt;&lt;/div&gt;&lt;div&gt;&lt;ul&gt;&lt;li&gt;managing expense&lt;/li&gt;&lt;li&gt;managing expense category&lt;br&gt;&lt;/li&gt;&lt;/ul&gt;&lt;/div&gt;" style="whiteSpace=wrap;html=1;aspect=fixed;align=left;fillColor=#fff2cc;strokeColor=#d6b656;" parent="wCk7jp4Z5cYWTqhnBnQ8-1" vertex="1">
          <mxGeometry x="240" y="390" width="150" height="150" as="geometry" />
        </mxCell>
        <mxCell id="9UnvMbc1CwcXk93R5LpV-0" value="&lt;div&gt;&lt;b&gt;ms-notif&lt;/b&gt;&lt;br&gt;responsible for:&lt;br&gt;&lt;/div&gt;&lt;div&gt;&lt;ul&gt;&lt;li&gt;send push notifs&lt;/li&gt;&lt;li&gt;linking device to user&lt;br&gt;&lt;/li&gt;&lt;/ul&gt;&lt;/div&gt;" style="whiteSpace=wrap;html=1;aspect=fixed;align=left;fillColor=#cce5ff;strokeColor=#36393d;" parent="wCk7jp4Z5cYWTqhnBnQ8-1" vertex="1">
          <mxGeometry x="400" y="390" width="150" height="150" as="geometry" />
        </mxCell>
        <mxCell id="x0Sapajw6CMstyWDaG11-0" value="&lt;div&gt;&lt;b&gt;ms-crm&lt;/b&gt;&lt;br&gt;responsible for:&lt;br&gt;&lt;/div&gt;&lt;div&gt;&lt;ul&gt;&lt;li&gt;manage customer from given merchants&lt;/li&gt;&lt;li&gt;manage customer&#39;s spending data&lt;br&gt;&lt;/li&gt;&lt;/ul&gt;&lt;/div&gt;" style="whiteSpace=wrap;html=1;aspect=fixed;align=left;fillColor=#f8cecc;strokeColor=#b85450;" parent="wCk7jp4Z5cYWTqhnBnQ8-1" vertex="1">
          <mxGeometry x="562" y="127" width="150" height="150" as="geometry" />
        </mxCell>
        <mxCell id="x0Sapajw6CMstyWDaG11-1" value="&lt;div&gt;&lt;b&gt;ms-idm-core&lt;/b&gt;&lt;br&gt;responsible for:&lt;br&gt;&lt;/div&gt;&lt;div&gt;&lt;ul&gt;&lt;li&gt;identity management&lt;br&gt;&lt;i&gt;to new FR realm&lt;/i&gt;&lt;br&gt;&lt;/li&gt;&lt;/ul&gt;&lt;/div&gt;" style="whiteSpace=wrap;html=1;aspect=fixed;align=left;fillColor=#fff2cc;strokeColor=#d6b656;" parent="wCk7jp4Z5cYWTqhnBnQ8-1" vertex="1">
          <mxGeometry x="744" y="149" width="150" height="150" as="geometry" />
        </mxCell>
        <mxCell id="x0Sapajw6CMstyWDaG11-2" value="&lt;div&gt;&lt;b&gt;ms-gql-auth&lt;/b&gt;&lt;br&gt;responsible for:&lt;br&gt;&lt;/div&gt;&lt;div&gt;&lt;ul&gt;&lt;li&gt;manage linking jenius account to bisniskit account&lt;br&gt;&lt;/li&gt;&lt;/ul&gt;&lt;/div&gt;" style="whiteSpace=wrap;html=1;aspect=fixed;align=left;fillColor=#ffe6cc;strokeColor=#d79b00;" parent="wCk7jp4Z5cYWTqhnBnQ8-1" vertex="1">
          <mxGeometry x="744" y="310" width="150" height="150" as="geometry" />
        </mxCell>
        <mxCell id="MRT7CHP9NQHFpmDbVacs-0" value="&lt;div&gt;&lt;b&gt;worker-recurring-expense&lt;/b&gt;&lt;br&gt;responsible for expense scheduling.&lt;br&gt;&lt;/div&gt;" style="whiteSpace=wrap;html=1;aspect=fixed;align=left;fillColor=#fff2cc;strokeColor=#d6b656;gradientColor=#ffd966;" vertex="1" parent="wCk7jp4Z5cYWTqhnBnQ8-1">
          <mxGeometry x="562" y="290" width="150" height="150" as="geometry" />
        </mxCell>
        <mxCell id="MRT7CHP9NQHFpmDbVacs-1" value="" style="endArrow=none;dashed=1;html=1;" edge="1" parent="wCk7jp4Z5cYWTqhnBnQ8-1">
          <mxGeometry width="50" height="50" relative="1" as="geometry">
            <mxPoint x="724" y="570" as="sourcePoint" />
            <mxPoint x="732" y="23" as="targetPoint" />
          </mxGeometry>
        </mxCell>
        <mxCell id="MRT7CHP9NQHFpmDbVacs-2" value="deployed at Cakra" style="text;html=1;align=center;verticalAlign=middle;resizable=0;points=[];autosize=1;" vertex="1" parent="wCk7jp4Z5cYWTqhnBnQ8-1">
          <mxGeometry x="262" y="556" width="107" height="18" as="geometry" />
        </mxCell>
        <mxCell id="MRT7CHP9NQHFpmDbVacs-3" value="namespace Jenius" style="text;html=1;align=center;verticalAlign=middle;resizable=0;points=[];autosize=1;" vertex="1" parent="wCk7jp4Z5cYWTqhnBnQ8-1">
          <mxGeometry x="759" y="468" width="110" height="18" as="geometry" />
        </mxCell>
      </root>
    </mxGraphModel>
  </diagram>
  <diagram id="TCo91LpWuJoK9tQ8XLWB" name="FE Biller">
    <mxGraphModel dx="1018" dy="656" grid="1" gridSize="10" guides="1" tooltips="1" connect="1" arrows="1" fold="1" page="1" pageScale="1" pageWidth="3300" pageHeight="4681" math="0" shadow="0">
      <root>
        <mxCell id="uQP5wtwYyLoe403ZeY5T-0" />
        <mxCell id="uQP5wtwYyLoe403ZeY5T-1" parent="uQP5wtwYyLoe403ZeY5T-0" />
      </root>
    </mxGraphModel>
  </diagram>
</mxfile>
